<svg xmlns="http://www.w3.org/2000/svg" viewBox="0 0 600 600" width="600" height="600"><defs><linearGradient id="pceme_0" x1="0" y1="0" x2="1" y2="1"><stop offset="0" stop-color="#f0f1f3"/><stop offset="1" stop-color="#d0d3d8"/></linearGradient><linearGradient id="pceme_1" x1="0" y1="0" x2="1" y2="1"><stop offset="0" stop-color="#b2b9c2"/><stop offset="1" stop-color="#818a93"/></linearGradient><linearGradient id="pceme_2" x1="0" y1="0" x2="1" y2="1"><stop offset="0" stop-color="#e96d4d"/><stop offset="1" stop-color="#b74224"/></linearGradient><radialGradient id="pceme_3"><stop offset="0" stop-color="#000" stop-opacity="0.35"/><stop offset="1" stop-color="#000" stop-opacity="0"/></radialGradient></defs><rect width="600" height="600" fill="url(#pceme_0)"/><circle cx="300" cy="300" r="250" fill="#fff" opacity=".55"/><circle cx="300" cy="300" r="200" fill="#fff" opacity=".35"/><circle cx="520" cy="70" r="70" fill="#b5bbc2" opacity=".5"/><circle cx="70" cy="540" r="90" fill="#b5bbc2" opacity=".45"/><g transform="translate(40 36.4) scale(2.6) rotate(0 100 100)"><ellipse cx="100" cy="185" rx="66" ry="7" fill="url(#pceme_3)"/><path d="M50 62 Q42 46 62 44 L138 44 Q158 46 150 62 L162 168 Q166 186 146 186 L54 186 Q34 186 38 168Z" fill="url(#pceme_1)"/><path d="M48 66 Q100 82 152 66 L152 74 Q100 90 48 74Z" fill="#727a82" opacity=".5"/><path d="M52 60 Q100 74 148 60" stroke="#fff" stroke-width="2" stroke-dasharray="4 4" fill="none" opacity=".7"/><rect x="46" y="104" width="108" height="52" rx="8" fill="url(#pceme_2)" /><g transform="translate(100 130)"><path d="M-20 14 L18 -14 L24 -6 L-12 20 Z" fill="#fff"/><rect x="-24" y="12" width="14" height="6" rx="3" fill="#fff" opacity=".8" transform="rotate(-38 -17 15)"/></g><path d="M52 88 L60 176" stroke="#fff" stroke-width="7" stroke-linecap="round" opacity=".22"/></g><path d="M110 92 Q110 110 128 110 Q110 110 110 128 Q110 110 92 110 Q110 110 110 92Z" fill="#fff" opacity="0.8"/><path d="M500 468 Q500 480 512 480 Q500 480 500 492 Q500 480 488 480 Q500 480 500 468Z" fill="#fff" opacity="0.8"/></svg>
