<svg xmlns="http://www.w3.org/2000/svg" viewBox="0 0 600 600" width="600" height="600"><defs><linearGradient id="pjuic_0" x1="0" y1="0" x2="1" y2="1"><stop offset="0" stop-color="#fef1e8"/><stop offset="1" stop-color="#fdd2b4"/></linearGradient><radialGradient id="pjuic_1"><stop offset="0" stop-color="#000" stop-opacity="0.35"/><stop offset="1" stop-color="#000" stop-opacity="0"/></radialGradient><linearGradient id="pjuic_2" x1="0" y1="0" x2="1" y2="1"><stop offset="0" stop-color="#fff0dd"/><stop offset="1" stop-color="#f2ddc5"/></linearGradient><linearGradient id="pjuic_3" x1="0" y1="0" x2="1" y2="1"><stop offset="0" stop-color="#fa9249"/><stop offset="1" stop-color="#c75c12"/></linearGradient></defs><rect width="600" height="600" fill="url(#pjuic_0)"/><circle cx="300" cy="300" r="250" fill="#fff" opacity=".55"/><circle cx="300" cy="300" r="200" fill="#fff" opacity=".35"/><circle cx="520" cy="70" r="70" fill="#fcb98b" opacity=".5"/><circle cx="70" cy="540" r="90" fill="#fcb98b" opacity=".45"/><g transform="translate(40 36.4) scale(2.6) rotate(0 100 100)"><ellipse cx="104" cy="186" rx="66" ry="7" fill="url(#pjuic_1)"/><path d="M60 76 L140 76 L140 186 L60 186Z" fill="url(#pjuic_2)"/><path d="M140 76 L164 66 L164 176 L140 186Z" fill="#ccbaa6"/><path d="M60 76 L84 46 L164 46 L164 66 L140 76Z" fill="#ffecd6"/><path d="M60 76 L100 76 L84 46Z" fill="#f2ddc5"/><path d="M60 76 L140 76 L164 66" stroke="#b3a391" stroke-width="2" fill="none"/><rect x="60" y="104" width="80" height="54" rx="0" fill="url(#pjuic_3)" opacity=".95"/><g transform="translate(100 131) scale(.85)"><circle cx="0" cy="0" r="20" fill="#fff" /><path d="M0 0 L14 0" stroke="#f97316" stroke-width="3"/><path d="M0 0 L7 12.1" stroke="#f97316" stroke-width="3"/><path d="M0 0 L-7 12.1" stroke="#f97316" stroke-width="3"/><path d="M0 0 L-14 0" stroke="#f97316" stroke-width="3"/><path d="M0 0 L-7 -12.1" stroke="#f97316" stroke-width="3"/><path d="M0 0 L7 -12.1" stroke="#f97316" stroke-width="3"/></g><path d="M138 50 L150 18 L168 14" stroke="#ef4444" stroke-width="5" fill="none" stroke-linecap="round"/><path d="M68 90 L68 176" stroke="#fff" stroke-width="6" stroke-linecap="round" opacity=".4"/></g><path d="M110 92 Q110 110 128 110 Q110 110 110 128 Q110 110 92 110 Q110 110 110 92Z" fill="#fff" opacity="0.8"/><path d="M500 468 Q500 480 512 480 Q500 480 500 492 Q500 480 488 480 Q500 480 500 468Z" fill="#fff" opacity="0.8"/></svg>
