<svg xmlns="http://www.w3.org/2000/svg" viewBox="0 0 600 600" width="600" height="600"><defs><linearGradient id="psham_0" x1="0" y1="0" x2="1" y2="1"><stop offset="0" stop-color="#f6effb"/><stop offset="1" stop-color="#e2cbf2"/></linearGradient><radialGradient id="psham_1"><stop offset="0" stop-color="#000" stop-opacity="0.35"/><stop offset="1" stop-color="#000" stop-opacity="0"/></radialGradient><linearGradient id="psham_2" x1="0" y1="0" x2="1" y2="0"><stop offset="0" stop-color="#8047a7"/><stop offset="0.3" stop-color="#bd89e1"/><stop offset="0.6" stop-color="#a45bd6"/><stop offset="1" stop-color="#76429a"/></linearGradient><linearGradient id="psham_3" x1="0" y1="0" x2="1" y2="1"><stop offset="0" stop-color="#f4f7fa"/><stop offset="1" stop-color="#c1c4c7"/></linearGradient></defs><rect width="600" height="600" fill="url(#psham_0)"/><circle cx="300" cy="300" r="250" fill="#fff" opacity=".55"/><circle cx="300" cy="300" r="200" fill="#fff" opacity=".35"/><circle cx="520" cy="70" r="70" fill="#d2adeb" opacity=".5"/><circle cx="70" cy="540" r="90" fill="#d2adeb" opacity=".45"/><g transform="translate(40 36.4) scale(2.6) rotate(0 100 100)"><ellipse cx="100" cy="185" rx="52" ry="6" fill="url(#psham_1)"/><path d="M62 84 Q62 76 72 74 L128 74 Q138 76 138 84 L138 172 Q138 186 124 186 L76 186 Q62 186 62 172Z" fill="url(#psham_2)"/><rect x="88" y="58" width="24" height="18" rx="3" fill="#e2e8f0" /><rect x="92" y="38" width="16" height="22" rx="4" fill="url(#psham_3)" /><path d="M92 40 L132 40 Q142 40 142 48 L142 52" stroke="#e2e8f0" stroke-width="7" fill="none" stroke-linecap="round"/><rect x="66" y="100" width="68" height="56" rx="6" fill="#fdf6ff" opacity=".92"/><g transform="translate(100 128) scale(.6)"><path d="M-18 14 Q-14 -16 18 -18 Q16 14 -18 14Z" fill="#a45bd6"/><path d="M-14 12 L12 -12" stroke="#2f855a" stroke-width="2.5"/></g><path d="M70 92 L70 176" stroke="#fff" stroke-width="6" stroke-linecap="round" opacity=".4"/></g><path d="M110 92 Q110 110 128 110 Q110 110 110 128 Q110 110 92 110 Q110 110 110 92Z" fill="#fff" opacity="0.8"/><path d="M500 468 Q500 480 512 480 Q500 480 500 492 Q500 480 488 480 Q500 480 500 468Z" fill="#fff" opacity="0.8"/></svg>
