<svg xmlns="http://www.w3.org/2000/svg" viewBox="0 0 600 600" width="600" height="600"><defs><linearGradient id="psoda_0" x1="0" y1="0" x2="1" y2="1"><stop offset="0" stop-color="#fce9ea"/><stop offset="1" stop-color="#f5babc"/></linearGradient><linearGradient id="psoda_1" x1="0" y1="0" x2="1" y2="0"><stop offset="0" stop-color="#af1e23"/><stop offset="0.3" stop-color="#e96368"/><stop offset="0.6" stop-color="#e0272d"/><stop offset="1" stop-color="#a11c20"/></linearGradient><radialGradient id="psoda_2"><stop offset="0" stop-color="#000" stop-opacity="0.35"/><stop offset="1" stop-color="#000" stop-opacity="0"/></radialGradient></defs><rect width="600" height="600" fill="url(#psoda_0)"/><circle cx="300" cy="300" r="250" fill="#fff" opacity=".55"/><circle cx="300" cy="300" r="200" fill="#fff" opacity=".35"/><circle cx="520" cy="70" r="70" fill="#f09396" opacity=".5"/><circle cx="70" cy="540" r="90" fill="#f09396" opacity=".45"/><g transform="translate(40 36.4) scale(2.6) rotate(0 100 100)"><ellipse cx="100" cy="188" rx="49.6" ry="6" fill="url(#psoda_2)"/><path d="M60 60 L60 176 A40 10 0 0 0 140 176 L140 60Z" fill="url(#psoda_1)"/><ellipse cx="100" cy="60" rx="40" ry="10" fill="#cbd5e1" /><ellipse cx="100" cy="60" rx="34" ry="6" fill="#e8ecf2" opacity=".8"/><path d="M60 170 A40 10 0 0 0 140 170" stroke="#cbd5e1" stroke-width="5" fill="none"/><g transform="translate(100 124)"><path transform="translate(0 6)" d="M-46 -16 Q-23 -34 0 -16 T46 -16 L46 8 Q23 -10 0 8 T-46 8Z" fill="#fff"/></g><circle cx="100" cy="62" r="4" fill="#94a3b8" /></g><path d="M110 92 Q110 110 128 110 Q110 110 110 128 Q110 110 92 110 Q110 110 110 92Z" fill="#fff" opacity="0.8"/><path d="M500 468 Q500 480 512 480 Q500 480 500 492 Q500 480 488 480 Q500 480 500 468Z" fill="#fff" opacity="0.8"/></svg>
