<svg xmlns="http://www.w3.org/2000/svg" viewBox="0 0 600 600" width="600" height="600"><defs><linearGradient id="ptile_0" x1="0" y1="0" x2="1" y2="1"><stop offset="0" stop-color="#eaf4f8"/><stop offset="1" stop-color="#bcdbe7"/></linearGradient><radialGradient id="ptile_1"><stop offset="0" stop-color="#000" stop-opacity="0.35"/><stop offset="1" stop-color="#000" stop-opacity="0"/></radialGradient><linearGradient id="ptile_2" x1="0" y1="0" x2="1" y2="1"><stop offset="0" stop-color="#59a5c4"/><stop offset="1" stop-color="#297e9f"/></linearGradient><linearGradient id="ptile_3" x1="0" y1="0" x2="1" y2="1"><stop offset="0" stop-color="#edf1f5"/><stop offset="1" stop-color="#cdd1d6"/></linearGradient><linearGradient id="ptile_4" x1="0" y1="0" x2="1" y2="1"><stop offset="0" stop-color="#edf1f5"/><stop offset="1" stop-color="#cdd1d6"/></linearGradient><linearGradient id="ptile_5" x1="0" y1="0" x2="1" y2="1"><stop offset="0" stop-color="#59a5c4"/><stop offset="1" stop-color="#297e9f"/></linearGradient></defs><rect width="600" height="600" fill="url(#ptile_0)"/><circle cx="300" cy="300" r="250" fill="#fff" opacity=".55"/><circle cx="300" cy="300" r="200" fill="#fff" opacity=".35"/><circle cx="520" cy="70" r="70" fill="#97c7da" opacity=".5"/><circle cx="70" cy="540" r="90" fill="#97c7da" opacity=".45"/><g transform="translate(40 36.4) scale(2.6) rotate(0 100 100)"><ellipse cx="100" cy="184" rx="80" ry="7" fill="url(#ptile_1)"/><rect x="30" y="160" width="140" height="14" rx="3" fill="#7c8794" /><rect x="36" y="148" width="140" height="12" rx="3" fill="#9aa5b1" /><rect x="28" y="28" width="68" height="58" rx="5" fill="url(#ptile_2)" /><rect x="35" y="35" width="54" height="44" rx="3" fill="none" stroke="#fff" stroke-width="2.5" opacity=".6"/><rect x="33" y="32" width="22" height="4" rx="2" fill="#fff" opacity="0.5"/><rect x="102" y="28" width="68" height="58" rx="5" fill="url(#ptile_3)" /><rect x="109" y="35" width="54" height="44" rx="3" fill="none" stroke="#fff" stroke-width="2.5" opacity=".6"/><rect x="107" y="32" width="22" height="4" rx="2" fill="#fff" opacity="0.5"/><rect x="28" y="90" width="68" height="58" rx="5" fill="url(#ptile_4)" /><rect x="35" y="97" width="54" height="44" rx="3" fill="none" stroke="#fff" stroke-width="2.5" opacity=".6"/><rect x="33" y="94" width="22" height="4" rx="2" fill="#fff" opacity="0.5"/><rect x="102" y="90" width="68" height="58" rx="5" fill="url(#ptile_5)" /><rect x="109" y="97" width="54" height="44" rx="3" fill="none" stroke="#fff" stroke-width="2.5" opacity=".6"/><rect x="107" y="94" width="22" height="4" rx="2" fill="#fff" opacity="0.5"/></g><path d="M110 92 Q110 110 128 110 Q110 110 110 128 Q110 110 92 110 Q110 110 110 92Z" fill="#fff" opacity="0.8"/><path d="M500 468 Q500 480 512 480 Q500 480 500 492 Q500 480 488 480 Q500 480 500 468Z" fill="#fff" opacity="0.8"/></svg>
