<svg xmlns="http://www.w3.org/2000/svg" viewBox="0 0 600 600" width="600" height="600"><defs><linearGradient id="ptiss_0" x1="0" y1="0" x2="1" y2="1"><stop offset="0" stop-color="#ebf6fa"/><stop offset="1" stop-color="#bfe3f0"/></linearGradient><radialGradient id="ptiss_1"><stop offset="0" stop-color="#000" stop-opacity="0.35"/><stop offset="1" stop-color="#000" stop-opacity="0"/></radialGradient><linearGradient id="ptiss_2" x1="0" y1="0" x2="1" y2="1"><stop offset="0" stop-color="#8bd1ed"/><stop offset="1" stop-color="#5ea8c5"/></linearGradient></defs><rect width="600" height="600" fill="url(#ptiss_0)"/><circle cx="300" cy="300" r="250" fill="#fff" opacity=".55"/><circle cx="300" cy="300" r="200" fill="#fff" opacity=".35"/><circle cx="520" cy="70" r="70" fill="#9cd4e8" opacity=".5"/><circle cx="70" cy="540" r="90" fill="#9cd4e8" opacity=".45"/><g transform="translate(40 36.4) scale(2.6) rotate(0 100 100)"><ellipse cx="100" cy="184" rx="76" ry="7" fill="url(#ptiss_1)"/><path d="M64 80 Q76 40 92 70 Q100 20 118 66 Q130 44 140 80Z" fill="#fff" stroke="#dbe5ef" stroke-width="2"/><path d="M32 90 L168 90 L176 176 Q177 186 166 186 L34 186 Q23 186 24 176Z" fill="url(#ptiss_2)"/><ellipse cx="100" cy="90" rx="38" ry="7" fill="#1e3a5f" opacity=".55"/><circle cx="60" cy="132" r="14" fill="#fff" opacity=".5"/><circle cx="100" cy="150" r="18" fill="#fff" opacity=".4"/><circle cx="142" cy="126" r="10" fill="#fff" opacity=".5"/><path d="M40 100 L44 176" stroke="#fff" stroke-width="6" stroke-linecap="round" opacity=".35"/></g><path d="M110 92 Q110 110 128 110 Q110 110 110 128 Q110 110 92 110 Q110 110 110 92Z" fill="#fff" opacity="0.8"/><path d="M500 468 Q500 480 512 480 Q500 480 500 492 Q500 480 488 480 Q500 480 500 468Z" fill="#fff" opacity="0.8"/></svg>
