<svg xmlns="http://www.w3.org/2000/svg" viewBox="0 0 256 256" width="256" height="256"><defs><linearGradient id="skid_0" x1="0" y1="0" x2="1" y2="1"><stop offset="0" stop-color="#7dd3fc"/><stop offset="1" stop-color="#7c3aed"/></linearGradient><radialGradient id="skid_1"><stop offset="0" stop-color="#000" stop-opacity="0.35"/><stop offset="1" stop-color="#000" stop-opacity="0"/></radialGradient><linearGradient id="skid_2" x1="0" y1="0" x2="1" y2="1"><stop offset="0" stop-color="#f15757"/><stop offset="1" stop-color="#e34141"/></linearGradient><linearGradient id="skid_3" x1="0" y1="0" x2="1" y2="1"><stop offset="0" stop-color="#4f8ff7"/><stop offset="1" stop-color="#387cea"/></linearGradient><linearGradient id="skid_4" x1="0" y1="0" x2="1" y2="1"><stop offset="0" stop-color="#fbd12c"/><stop offset="1" stop-color="#eec214"/></linearGradient><radialGradient id="skid_5"><stop offset="0" stop-color="#000" stop-opacity="0.35"/><stop offset="1" stop-color="#000" stop-opacity="0"/></radialGradient><radialGradient id="skid_6" cx="0.35" cy="0.3" r="0.8"><stop offset="0" stop-color="#d9b595"/><stop offset="0.5" stop-color="#b9783f"/><stop offset="1" stop-color="#82542c"/></radialGradient><radialGradient id="skid_7" cx="0.35" cy="0.3" r="0.8"><stop offset="0" stop-color="#d9b595"/><stop offset="0.5" stop-color="#b9783f"/><stop offset="1" stop-color="#82542c"/></radialGradient><radialGradient id="skid_8" cx="0.35" cy="0.3" r="0.8"><stop offset="0" stop-color="#d9b595"/><stop offset="0.5" stop-color="#b9783f"/><stop offset="1" stop-color="#82542c"/></radialGradient><radialGradient id="skid_9" cx="0.35" cy="0.3" r="0.8"><stop offset="0" stop-color="#d9b595"/><stop offset="0.5" stop-color="#b9783f"/><stop offset="1" stop-color="#82542c"/></radialGradient><radialGradient id="skid_10" cx="0.35" cy="0.3" r="0.8"><stop offset="0" stop-color="#d9b595"/><stop offset="0.5" stop-color="#b9783f"/><stop offset="1" stop-color="#82542c"/></radialGradient><radialGradient id="skid_11" cx="0.35" cy="0.3" r="0.8"><stop offset="0" stop-color="#d9b595"/><stop offset="0.5" stop-color="#b9783f"/><stop offset="1" stop-color="#82542c"/></radialGradient><radialGradient id="skid_12" cx="0.35" cy="0.3" r="0.8"><stop offset="0" stop-color="#dfbc9b"/><stop offset="0.5" stop-color="#c4854a"/><stop offset="1" stop-color="#895d34"/></radialGradient><radialGradient id="skid_13" cx="0.35" cy="0.3" r="0.8"><stop offset="0" stop-color="#dfbc9b"/><stop offset="0.5" stop-color="#c4854a"/><stop offset="1" stop-color="#895d34"/></radialGradient></defs><rect x="6" y="6" width="244" height="244" rx="60" fill="url(#skid_0)"/><circle cx="70" cy="60" r="90" fill="#fff" opacity=".14"/><circle cx="230" cy="250" r="100" fill="#000" opacity=".1"/><ellipse cx="128" cy="206" rx="86" ry="12" fill="#000" opacity=".15"/><g transform="translate(122 101.8) scale(0.6) rotate(6 100 100)"><ellipse cx="100" cy="186" rx="80" ry="7" fill="url(#skid_1)"/><path d="M24 124 L62 105 L100 124 L62 143Z" fill="#f47c7c"/><path d="M24 124 L62 143 L62 184.8 L24 165.8Z" fill="url(#skid_2)"/><circle cx="43" cy="154.4" r="7.6" fill="#fff" opacity=".85"/><path d="M62 143 L100 124 L100 165.8 L62 184.8Z" fill="#ba3535"/><path d="M100 124 L138 105 L176 124 L138 143Z" fill="#76a8f9"/><path d="M100 124 L138 143 L138 184.8 L100 165.8Z" fill="url(#skid_3)"/><rect x="110.6" y="146.8" width="15.2" height="15.2" rx="3" fill="#fff" opacity=".85"/><path d="M138 143 L176 124 L176 165.8 L138 184.8Z" fill="#2e65c0"/><path d="M62 76 L100 57 L138 76 L100 95Z" fill="#fcdb5b"/><path d="M62 76 L100 95 L100 136.8 L62 117.8Z" fill="url(#skid_4)"/><path d="M81 97.3 L92.4 114 L69.6 114Z" fill="#fff" opacity=".85"/><path d="M100 95 L138 76 L138 117.8 L100 136.8Z" fill="#c39f10"/></g><g transform="translate(24 57.8) scale(0.8) rotate(-4 100 100)"><ellipse cx="100" cy="186" rx="66" ry="6" fill="url(#skid_5)"/><circle cx="66" cy="38" r="15" fill="url(#skid_6)" /><circle cx="134" cy="38" r="15" fill="url(#skid_7)" /><circle cx="66" cy="38" r="8" fill="#f3c9a0" /><circle cx="134" cy="38" r="8" fill="#f3c9a0" /><ellipse cx="58" cy="130" rx="14" ry="26" fill="url(#skid_8)" transform="rotate(25 58 130)"/><ellipse cx="142" cy="130" rx="14" ry="26" fill="url(#skid_9)" transform="rotate(-25 142 130)"/><ellipse cx="72" cy="176" rx="22" ry="14" fill="url(#skid_10)" /><ellipse cx="128" cy="176" rx="22" ry="14" fill="url(#skid_11)" /><ellipse cx="72" cy="178" rx="12" ry="7" fill="#f3c9a0" /><ellipse cx="128" cy="178" rx="12" ry="7" fill="#f3c9a0" /><ellipse cx="100" cy="140" rx="44" ry="46" fill="url(#skid_12)" /><ellipse cx="100" cy="146" rx="26" ry="28" fill="#f3d2ac" /><circle cx="100" cy="70" r="38" fill="url(#skid_13)" /><ellipse cx="100" cy="82" rx="17" ry="13" fill="#f3d2ac" /><ellipse cx="100" cy="76" rx="6" ry="4" fill="#3b2314" /><path d="M100 80 L100 86 M92 90 Q100 96 108 90" stroke="#3b2314" stroke-width="2.5" fill="none" stroke-linecap="round"/><circle cx="86" cy="62" r="4.5" fill="#1f1410" /><circle cx="114" cy="62" r="4.5" fill="#1f1410" /><circle cx="87.5" cy="60.5" r="1.5" fill="#fff" /><circle cx="115.5" cy="60.5" r="1.5" fill="#fff" /><path d="M100 112 L78 102 L78 122Z M100 112 L122 102 L122 122Z" fill="#ef4444"/><circle cx="100" cy="112" r="6" fill="#b91c1c" /><ellipse cx="80" cy="50" rx="8" ry="4" fill="#fff" opacity=".35" transform="rotate(-30 80 50)"/></g><path d="M204 40 Q204 52 216 52 Q204 52 204 64 Q204 52 192 52 Q204 52 204 40Z" fill="#fff" opacity="0.85"/><path d="M48 182 Q48 190 56 190 Q48 190 48 198 Q48 190 40 190 Q48 190 48 182Z" fill="#fff" opacity="0.7"/></svg>
