<svg xmlns="http://www.w3.org/2000/svg" viewBox="0 0 256 256" width="256" height="256"><defs><linearGradient id="spar_0" x1="0" y1="0" x2="1" y2="1"><stop offset="0" stop-color="#f0abfc"/><stop offset="1" stop-color="#a21caf"/></linearGradient><radialGradient id="spar_1"><stop offset="0" stop-color="#000" stop-opacity="0.35"/><stop offset="1" stop-color="#000" stop-opacity="0"/></radialGradient><linearGradient id="spar_2" x1="0" y1="0" x2="1" y2="1"><stop offset="0" stop-color="#a27df8"/><stop offset="1" stop-color="#6f4ac5"/></linearGradient><linearGradient id="spar_3" x1="0" y1="0" x2="1" y2="1"><stop offset="0" stop-color="#b9a2fb"/><stop offset="1" stop-color="#8e76d5"/></linearGradient><linearGradient id="spar_4" x1="0" y1="0" x2="1" y2="1"><stop offset="0" stop-color="#fccc50"/><stop offset="1" stop-color="#e2ac20"/></linearGradient><linearGradient id="spar_5" x1="0" y1="0" x2="1" y2="1"><stop offset="0" stop-color="#fccf5b"/><stop offset="1" stop-color="#e2ac20"/></linearGradient><linearGradient id="spar_6" x1="0" y1="0" x2="1" y2="1"><stop offset="0" stop-color="#fccc50"/><stop offset="1" stop-color="#d5a21f"/></linearGradient><linearGradient id="spar_7" x1="0" y1="0" x2="1" y2="1"><stop offset="0" stop-color="#f7b13c"/><stop offset="1" stop-color="#d08609"/></linearGradient><radialGradient id="spar_8" cx="0.35" cy="0.3" r="0.8"><stop offset="0" stop-color="#fddc87"/><stop offset="0.5" stop-color="#fbbf24"/><stop offset="1" stop-color="#b08619"/></radialGradient><radialGradient id="spar_9"><stop offset="0" stop-color="#000" stop-opacity="0.35"/><stop offset="1" stop-color="#000" stop-opacity="0"/></radialGradient><radialGradient id="spar_10" cx="0.35" cy="0.3" r="0.8"><stop offset="0" stop-color="#f69898"/><stop offset="0.5" stop-color="#ef4444"/><stop offset="1" stop-color="#a73030"/></radialGradient><radialGradient id="spar_11" cx="0.35" cy="0.3" r="0.8"><stop offset="0" stop-color="#93bafa"/><stop offset="0.5" stop-color="#3b82f6"/><stop offset="1" stop-color="#295bac"/></radialGradient><radialGradient id="spar_12" cx="0.35" cy="0.3" r="0.8"><stop offset="0" stop-color="#fce37e"/><stop offset="0.5" stop-color="#facc15"/><stop offset="1" stop-color="#af8f0f"/></radialGradient></defs><rect x="6" y="6" width="244" height="244" rx="60" fill="url(#spar_0)"/><circle cx="70" cy="60" r="90" fill="#fff" opacity=".14"/><circle cx="230" cy="250" r="100" fill="#000" opacity=".1"/><ellipse cx="128" cy="206" rx="86" ry="12" fill="#000" opacity=".15"/><g transform="translate(122 101.8) scale(0.6) rotate(6 100 100)"><ellipse cx="100" cy="186" rx="76" ry="6" fill="url(#spar_1)"/><rect x="38" y="92" width="124" height="92" rx="8" fill="url(#spar_2)" /><rect x="28" y="70" width="144" height="30" rx="8" fill="url(#spar_3)" /><rect x="88" y="70" width="24" height="114" rx="0" fill="url(#spar_4)" /><rect x="88" y="70" width="24" height="30" rx="0" fill="url(#spar_5)" /><path d="M100 70 Q56 22 52 56 Q50 78 100 70Z" fill="url(#spar_6)"/><path d="M100 70 Q144 22 148 56 Q150 78 100 70Z" fill="url(#spar_7)"/><circle cx="100" cy="68" r="11" fill="url(#spar_8)" /><path d="M46 100 L46 176" stroke="#fff" stroke-width="6" stroke-linecap="round" opacity=".3"/><circle cx="70" cy="130" r="4" fill="#fff" opacity=".4"/><circle cx="134" cy="150" r="4" fill="#fff" opacity=".4"/><circle cx="66" cy="160" r="3" fill="#fff" opacity=".4"/></g><g transform="translate(24 57.8) scale(0.8) rotate(-4 100 100)"><ellipse cx="100" cy="186" rx="34" ry="5" fill="url(#spar_9)"/><path d="M58 126 Q66.4 140 100 184" stroke="#e2e8f0" stroke-width="2.5" fill="none"/><path d="M104 104 Q103.2 140 100 184" stroke="#e2e8f0" stroke-width="2.5" fill="none"/><path d="M146 132 Q136.8 140 100 184" stroke="#e2e8f0" stroke-width="2.5" fill="none"/><ellipse cx="58" cy="80" rx="33" ry="42" fill="url(#spar_10)" transform="rotate(-8 58 80)"/><path d="M52 130 L64 130 L58 120Z" fill="#b33333"/><ellipse cx="46" cy="66" rx="6" ry="13" fill="#fff" opacity=".5" transform="rotate(25 46 66)"/><ellipse cx="104" cy="58" rx="33" ry="42" fill="url(#spar_11)" transform="rotate(0 104 58)"/><path d="M98 108 L110 108 L104 98Z" fill="#2c62b9"/><ellipse cx="92" cy="44" rx="6" ry="13" fill="#fff" opacity=".5" transform="rotate(25 92 44)"/><ellipse cx="146" cy="86" rx="33" ry="42" fill="url(#spar_12)" transform="rotate(8 146 86)"/><path d="M140 136 L152 136 L146 126Z" fill="#bc9910"/><ellipse cx="134" cy="72" rx="6" ry="13" fill="#fff" opacity=".5" transform="rotate(25 134 72)"/><rect x="90" y="178" width="20" height="8" rx="3" fill="#a21caf" /></g><path d="M204 40 Q204 52 216 52 Q204 52 204 64 Q204 52 192 52 Q204 52 204 40Z" fill="#fff" opacity="0.85"/><path d="M48 182 Q48 190 56 190 Q48 190 48 198 Q48 190 40 190 Q48 190 48 182Z" fill="#fff" opacity="0.7"/></svg>
