<svg xmlns="http://www.w3.org/2000/svg" viewBox="0 0 1200 500" width="1200" height="500"><defs><linearGradient id="bbui2_0" x1="1" y1="0" x2="0" y2="1"><stop offset="0" stop-color="#a8a29e"/><stop offset="1" stop-color="#57534e"/></linearGradient><radialGradient id="bbui2_1"><stop offset="0" stop-color="#000" stop-opacity="0.35"/><stop offset="1" stop-color="#000" stop-opacity="0"/></radialGradient><linearGradient id="bbui2_2" x1="0" y1="0" x2="1" y2="0"><stop offset="0" stop-color="#965f2d"/><stop offset="0.3" stop-color="#d29f71"/><stop offset="0.6" stop-color="#c07a3a"/><stop offset="1" stop-color="#8a582a"/></linearGradient><linearGradient id="bbui2_3" x1="0" y1="0" x2="1" y2="0"><stop offset="0" stop-color="#6c7681"/><stop offset="0.3" stop-color="#abb4bf"/><stop offset="0.6" stop-color="#8b97a6"/><stop offset="1" stop-color="#646d78"/></linearGradient><radialGradient id="bbui2_4"><stop offset="0" stop-color="#000" stop-opacity="0.35"/><stop offset="1" stop-color="#000" stop-opacity="0"/></radialGradient><linearGradient id="bbui2_5" x1="0" y1="0" x2="0" y2="1"><stop offset="0" stop-color="#aab4bf"/><stop offset="1" stop-color="#5d6975"/></linearGradient><linearGradient id="bbui2_6" x1="0" y1="0" x2="0" y2="1"><stop offset="0" stop-color="#aab4bf"/><stop offset="1" stop-color="#5d6975"/></linearGradient><linearGradient id="bbui2_7" x1="0" y1="0" x2="0" y2="1"><stop offset="0" stop-color="#aab4bf"/><stop offset="1" stop-color="#5d6975"/></linearGradient><linearGradient id="bbui2_8" x1="0" y1="0" x2="0" y2="1"><stop offset="0" stop-color="#aab4bf"/><stop offset="1" stop-color="#5d6975"/></linearGradient><linearGradient id="bbui2_9" x1="0" y1="0" x2="0" y2="1"><stop offset="0" stop-color="#aab4bf"/><stop offset="1" stop-color="#5d6975"/></linearGradient><linearGradient id="bbui2_10" x1="0" y1="0" x2="1" y2="1"><stop offset="0" stop-color="#b2b9c2"/><stop offset="1" stop-color="#818a93"/></linearGradient><linearGradient id="bbui2_11" x1="0" y1="0" x2="1" y2="1"><stop offset="0" stop-color="#e96d4d"/><stop offset="1" stop-color="#b74224"/></linearGradient><radialGradient id="bbui2_12"><stop offset="0" stop-color="#000" stop-opacity="0.35"/><stop offset="1" stop-color="#000" stop-opacity="0"/></radialGradient></defs><rect width="1200" height="500" fill="url(#bbui2_0)"/><circle cx="300" cy="270" r="260" fill="none" stroke="#fff" stroke-width="6" opacity="0.18"/><circle cx="300" cy="270" r="190" fill="none" stroke="#fff" stroke-width="5" opacity="0.15"/><circle cx="300" cy="270" r="120" fill="none" stroke="#fff" stroke-width="4" opacity="0.12"/><circle cx="300" cy="270" r="120" fill="#fff" opacity=".1"/><path d="M820 120 Q960 40 1100 120 T1200 100 L1200 500 L760 500Q800 300 820 120Z" fill="#ff9f1c" opacity=".16"/><circle cx="1130" cy="400" r="130" fill="#000" opacity=".09"/><path d="M0 460 Q300 400 600 450 T1200 420 L1200 500 L0 500Z" fill="#000" opacity=".12"/><circle cx="166" cy="190.5" r="6.5" fill="#fff" opacity="0.3"/><circle cx="576.9" cy="97.7" r="5.3" fill="#fff" opacity="0.4"/><circle cx="500.9" cy="164.7" r="3.5" fill="#fff" opacity="0.2"/><circle cx="445.2" cy="263.2" r="6.3" fill="#fff" opacity="0.3"/><circle cx="570.3" cy="363.2" r="5.7" fill="#fff" opacity="0.4"/><circle cx="241.6" cy="167.9" r="3.4" fill="#fff" opacity="0.4"/><circle cx="256.4" cy="331.8" r="6.2" fill="#fff" opacity="0.4"/><circle cx="114.3" cy="323.4" r="7.5" fill="#fff" opacity="0.3"/><circle cx="586.6" cy="280" r="4.1" fill="#fff" opacity="0.2"/><circle cx="445.8" cy="286.6" r="7.4" fill="#fff" opacity="0.4"/><circle cx="275.3" cy="266.7" r="5.8" fill="#fff" opacity="0.4"/><circle cx="58.6" cy="264.7" r="5.8" fill="#fff" opacity="0.2"/><circle cx="209.6" cy="228.7" r="3.9" fill="#fff" opacity="0.3"/><circle cx="245.5" cy="397.1" r="6.1" fill="#fff" opacity="0.4"/><g transform="translate(-40 131) scale(1.5) rotate(-14 100 100)"><ellipse cx="100" cy="184" rx="72" ry="6" fill="url(#bbui2_1)"/><g transform="translate(0 0) scale(1) rotate(0 100 100)"><g transform="rotate(-38 100 100)"><rect x="88" y="40" width="24" height="146" rx="10" fill="url(#bbui2_2)" /><rect x="44" y="22" width="112" height="40" rx="8" fill="url(#bbui2_3)" /><path d="M44 26 L24 38 L44 58Z" fill="#8b97a6"/><rect x="88" y="150" width="24" height="8" rx="2" fill="#7c3f12" opacity=".5"/></g></g></g><g transform="translate(355 131.7) scale(1.6) rotate(12 100 100)"><ellipse cx="100" cy="186" rx="80" ry="7" fill="url(#bbui2_4)"/><rect x="28" y="74" width="150" height="14" rx="7" fill="url(#bbui2_5)" /><path d="M38 76 l5 10" stroke="#fff" stroke-width="1.6" opacity=".35"/><path d="M50 76 l5 10" stroke="#fff" stroke-width="1.6" opacity=".35"/><path d="M62 76 l5 10" stroke="#fff" stroke-width="1.6" opacity=".35"/><path d="M74 76 l5 10" stroke="#fff" stroke-width="1.6" opacity=".35"/><path d="M86 76 l5 10" stroke="#fff" stroke-width="1.6" opacity=".35"/><path d="M98 76 l5 10" stroke="#fff" stroke-width="1.6" opacity=".35"/><path d="M110 76 l5 10" stroke="#fff" stroke-width="1.6" opacity=".35"/><path d="M122 76 l5 10" stroke="#fff" stroke-width="1.6" opacity=".35"/><path d="M134 76 l5 10" stroke="#fff" stroke-width="1.6" opacity=".35"/><path d="M146 76 l5 10" stroke="#fff" stroke-width="1.6" opacity=".35"/><path d="M158 76 l5 10" stroke="#fff" stroke-width="1.6" opacity=".35"/><path d="M170 76 l5 10" stroke="#fff" stroke-width="1.6" opacity=".35"/><rect x="36" y="102" width="150" height="14" rx="7" fill="url(#bbui2_6)" /><path d="M46 104 l5 10" stroke="#fff" stroke-width="1.6" opacity=".35"/><path d="M58 104 l5 10" stroke="#fff" stroke-width="1.6" opacity=".35"/><path d="M70 104 l5 10" stroke="#fff" stroke-width="1.6" opacity=".35"/><path d="M82 104 l5 10" stroke="#fff" stroke-width="1.6" opacity=".35"/><path d="M94 104 l5 10" stroke="#fff" stroke-width="1.6" opacity=".35"/><path d="M106 104 l5 10" stroke="#fff" stroke-width="1.6" opacity=".35"/><path d="M118 104 l5 10" stroke="#fff" stroke-width="1.6" opacity=".35"/><path d="M130 104 l5 10" stroke="#fff" stroke-width="1.6" opacity=".35"/><path d="M142 104 l5 10" stroke="#fff" stroke-width="1.6" opacity=".35"/><path d="M154 104 l5 10" stroke="#fff" stroke-width="1.6" opacity=".35"/><path d="M166 104 l5 10" stroke="#fff" stroke-width="1.6" opacity=".35"/><path d="M178 104 l5 10" stroke="#fff" stroke-width="1.6" opacity=".35"/><rect x="28" y="118" width="150" height="14" rx="7" fill="url(#bbui2_7)" /><path d="M38 120 l5 10" stroke="#fff" stroke-width="1.6" opacity=".35"/><path d="M50 120 l5 10" stroke="#fff" stroke-width="1.6" opacity=".35"/><path d="M62 120 l5 10" stroke="#fff" stroke-width="1.6" opacity=".35"/><path d="M74 120 l5 10" stroke="#fff" stroke-width="1.6" opacity=".35"/><path d="M86 120 l5 10" stroke="#fff" stroke-width="1.6" opacity=".35"/><path d="M98 120 l5 10" stroke="#fff" stroke-width="1.6" opacity=".35"/><path d="M110 120 l5 10" stroke="#fff" stroke-width="1.6" opacity=".35"/><path d="M122 120 l5 10" stroke="#fff" stroke-width="1.6" opacity=".35"/><path d="M134 120 l5 10" stroke="#fff" stroke-width="1.6" opacity=".35"/><path d="M146 120 l5 10" stroke="#fff" stroke-width="1.6" opacity=".35"/><path d="M158 120 l5 10" stroke="#fff" stroke-width="1.6" opacity=".35"/><path d="M170 120 l5 10" stroke="#fff" stroke-width="1.6" opacity=".35"/><rect x="36" y="146" width="150" height="14" rx="7" fill="url(#bbui2_8)" /><path d="M46 148 l5 10" stroke="#fff" stroke-width="1.6" opacity=".35"/><path d="M58 148 l5 10" stroke="#fff" stroke-width="1.6" opacity=".35"/><path d="M70 148 l5 10" stroke="#fff" stroke-width="1.6" opacity=".35"/><path d="M82 148 l5 10" stroke="#fff" stroke-width="1.6" opacity=".35"/><path d="M94 148 l5 10" stroke="#fff" stroke-width="1.6" opacity=".35"/><path d="M106 148 l5 10" stroke="#fff" stroke-width="1.6" opacity=".35"/><path d="M118 148 l5 10" stroke="#fff" stroke-width="1.6" opacity=".35"/><path d="M130 148 l5 10" stroke="#fff" stroke-width="1.6" opacity=".35"/><path d="M142 148 l5 10" stroke="#fff" stroke-width="1.6" opacity=".35"/><path d="M154 148 l5 10" stroke="#fff" stroke-width="1.6" opacity=".35"/><path d="M166 148 l5 10" stroke="#fff" stroke-width="1.6" opacity=".35"/><path d="M178 148 l5 10" stroke="#fff" stroke-width="1.6" opacity=".35"/><rect x="28" y="162" width="150" height="14" rx="7" fill="url(#bbui2_9)" /><path d="M38 164 l5 10" stroke="#fff" stroke-width="1.6" opacity=".35"/><path d="M50 164 l5 10" stroke="#fff" stroke-width="1.6" opacity=".35"/><path d="M62 164 l5 10" stroke="#fff" stroke-width="1.6" opacity=".35"/><path d="M74 164 l5 10" stroke="#fff" stroke-width="1.6" opacity=".35"/><path d="M86 164 l5 10" stroke="#fff" stroke-width="1.6" opacity=".35"/><path d="M98 164 l5 10" stroke="#fff" stroke-width="1.6" opacity=".35"/><path d="M110 164 l5 10" stroke="#fff" stroke-width="1.6" opacity=".35"/><path d="M122 164 l5 10" stroke="#fff" stroke-width="1.6" opacity=".35"/><path d="M134 164 l5 10" stroke="#fff" stroke-width="1.6" opacity=".35"/><path d="M146 164 l5 10" stroke="#fff" stroke-width="1.6" opacity=".35"/><path d="M158 164 l5 10" stroke="#fff" stroke-width="1.6" opacity=".35"/><path d="M170 164 l5 10" stroke="#fff" stroke-width="1.6" opacity=".35"/><rect x="70" y="66" width="12" height="120" rx="4" fill="#2d3a4a" opacity=".8"/><rect x="130" y="66" width="12" height="120" rx="4" fill="#2d3a4a" opacity=".8"/></g><g transform="translate(85 55.1) scale(2.2) rotate(0 100 100)"><ellipse cx="100" cy="185" rx="66" ry="7" fill="url(#bbui2_12)"/><path d="M50 62 Q42 46 62 44 L138 44 Q158 46 150 62 L162 168 Q166 186 146 186 L54 186 Q34 186 38 168Z" fill="url(#bbui2_10)"/><path d="M48 66 Q100 82 152 66 L152 74 Q100 90 48 74Z" fill="#727a82" opacity=".5"/><path d="M52 60 Q100 74 148 60" stroke="#fff" stroke-width="2" stroke-dasharray="4 4" fill="none" opacity=".7"/><rect x="46" y="104" width="108" height="52" rx="8" fill="url(#bbui2_11)" /><g transform="translate(100 130)"><path d="M-20 14 L18 -14 L24 -6 L-12 20 Z" fill="#fff"/><rect x="-24" y="12" width="14" height="6" rx="3" fill="#fff" opacity=".8" transform="rotate(-38 -17 15)"/></g><path d="M52 88 L60 176" stroke="#fff" stroke-width="7" stroke-linecap="round" opacity=".22"/></g><path d="M470 60 Q470 80 490 80 Q470 80 470 100 Q470 80 450 80 Q470 80 470 60Z" fill="#fff" opacity="0.7"/><path d="M110 54 Q110 70 126 70 Q110 70 110 86 Q110 70 94 70 Q110 70 110 54Z" fill="#fff" opacity="0.7"/><path d="M600 288 Q600 300 612 300 Q600 300 600 312 Q600 300 588 300 Q600 300 600 288Z" fill="#fff" opacity="0.6"/><circle cx="540" cy="400" r="8" fill="#fff" opacity=".35"/></svg>
