<svg xmlns="http://www.w3.org/2000/svg" viewBox="0 0 1200 500" width="1200" height="500"><defs><linearGradient id="bclo0_0" x1="0" y1="0" x2="1" y2="1"><stop offset="0" stop-color="#fb7185"/><stop offset="1" stop-color="#9f1239"/></linearGradient><radialGradient id="bclo0_1"><stop offset="0" stop-color="#000" stop-opacity="0.35"/><stop offset="1" stop-color="#000" stop-opacity="0"/></radialGradient><linearGradient id="bclo0_2" x1="0" y1="0" x2="1" y2="1"><stop offset="0" stop-color="#f687c1"/><stop offset="1" stop-color="#c35b92"/></linearGradient><radialGradient id="bclo0_3"><stop offset="0" stop-color="#000" stop-opacity="0.35"/><stop offset="1" stop-color="#000" stop-opacity="0"/></radialGradient><linearGradient id="bclo0_4" x1="0" y1="0" x2="1" y2="1"><stop offset="0" stop-color="#f26969"/><stop offset="1" stop-color="#bf3636"/></linearGradient><radialGradient id="bclo0_5"><stop offset="0" stop-color="#000" stop-opacity="0.35"/><stop offset="1" stop-color="#000" stop-opacity="0"/></radialGradient><linearGradient id="bclo0_6" x1="0" y1="0" x2="1" y2="1"><stop offset="0" stop-color="#f26969"/><stop offset="1" stop-color="#bf3636"/></linearGradient></defs><rect width="1200" height="500" fill="url(#bclo0_0)"/><circle cx="1000" cy="80" r="280" fill="#fff" opacity=".07"/><circle cx="1120" cy="420" r="220" fill="#fff" opacity=".06"/><circle cx="240" cy="260" r="230" fill="#fff" opacity=".1"/><path d="M0 400 Q200 350 400 400 T800 390 T1200 380 L1200 500 L0 500Z" fill="#ffe4e6" opacity=".22"/><path d="M0 440 Q250 410 500 450 T1000 440 T1200 430 L1200 500 L0 500Z" fill="#000" opacity=".12"/><ellipse cx="300" cy="452" rx="270" ry="22" fill="#000" opacity=".14"/><g transform="translate(-45 180.3) scale(1.5) rotate(-4 100 100)"><path d="M100 40 L100 28 Q100 14 114 14 Q126 14 126 24 Q126 32 114 34" stroke="#9aa7b6" stroke-width="5" fill="none" stroke-linecap="round"/><path d="M100 40 L26 86 Q20 92 28 92 L172 92 Q180 92 174 86Z" fill="none" stroke="#b07a45" stroke-width="7" stroke-linejoin="round"/><ellipse cx="100" cy="186" rx="56" ry="6" fill="url(#bclo0_1)"/><path d="M74 96 Q100 112 126 96 L124 130 Q158 152 166 184 L34 184 Q42 152 76 130Z" fill="url(#bclo0_2)"/><path d="M76 130 Q100 140 124 130 L124 140 Q100 150 76 140Z" fill="#9d174d" opacity=".8"/><path d="M82 100 Q100 112 118 100" stroke="#fff" stroke-width="3" fill="none" opacity=".4"/><path d="M60 160 L52 180" stroke="#fff" stroke-width="5" stroke-linecap="round" opacity=".3"/></g><g transform="translate(370 171) scale(1.5) rotate(4 100 100)"><ellipse cx="100" cy="186" rx="82" ry="6" fill="url(#bclo0_3)"/><path d="M24 152 L24 76 Q24 62 40 64 L72 68 Q86 98 122 104 Q166 110 184 138 Q190 152 176 152Z" fill="url(#bclo0_4)"/><path d="M24 120 Q24 100 40 100 L70 104 L72 152 L24 152Z" fill="#b33333"/><path d="M72 68 L96 66 Q100 74 98 86 Q90 84 78 80Z" fill="#fff" opacity=".9"/><path d="M84 90 L108 78" stroke="#fff" stroke-width="5" stroke-linecap="round"/><path d="M96 98 L120 88" stroke="#fff" stroke-width="5" stroke-linecap="round"/><path d="M108 104 L130 98" stroke="#fff" stroke-width="5" stroke-linecap="round"/><path d="M150 112 Q176 120 182 140" stroke="#fff" stroke-width="5" fill="none" opacity=".6" stroke-linecap="round"/><rect x="16" y="150" width="172" height="22" rx="11" fill="#f8fafc" /><rect x="16" y="164" width="172" height="9" rx="4" fill="#94a3b8" /><path d="M30 160 L170 160" stroke="#cbd5e1" stroke-width="2"/></g><g transform="translate(95 60.1) scale(2.2) rotate(0 100 100)"><ellipse cx="100" cy="186" rx="66" ry="6" fill="url(#bclo0_5)"/><path d="M70 32 Q100 54 130 32 L180 60 L160 102 L144 92 L144 176 Q144 186 134 186 L66 186 Q56 186 56 176 L56 92 L40 102 L20 60Z" fill="url(#bclo0_6)"/><path d="M70 32 Q100 70 130 32 Q100 50 70 32Z" fill="#9b2c2c"/><path d="M70 32 Q100 62 130 32" stroke="#fff" stroke-width="3" fill="none" opacity=".4"/><rect x="56" y="124" width="88" height="12" rx="0" fill="#fff" opacity=".4"/><g transform="translate(100 98) scale(.8)"><path d="M0 -20 L6 -6 L21 -5 L9 5 L13 20 L0 11 L-13 20 L-9 5 L-21 -5 L-6 -6Z" fill="#fff"/></g><path d="M64 100 L64 176" stroke="#fff" stroke-width="6" stroke-linecap="round" opacity=".25"/><path d="M40 102 L56 92 M160 102 L144 92" stroke="#000" stroke-width="3" opacity=".15"/></g><path d="M520 68 Q520 90 542 90 Q520 90 520 112 Q520 90 498 90 Q520 90 520 68Z" fill="#fff" opacity="0.7"/><path d="M80 106 Q80 120 94 120 Q80 120 80 134 Q80 120 66 120 Q80 120 80 106Z" fill="#fff" opacity="0.7"/><path d="M560 240 Q560 250 570 250 Q560 250 560 260 Q560 250 550 250 Q560 250 560 240Z" fill="#fff" opacity="0.6"/></svg>
