<svg xmlns="http://www.w3.org/2000/svg" viewBox="0 0 1200 500" width="1200" height="500"><defs><linearGradient id="bhou2_0" x1="1" y1="0" x2="0" y2="1"><stop offset="0" stop-color="#e0b074"/><stop offset="1" stop-color="#9a6330"/></linearGradient><radialGradient id="bhou2_1"><stop offset="0" stop-color="#000" stop-opacity="0.35"/><stop offset="1" stop-color="#000" stop-opacity="0"/></radialGradient><linearGradient id="bhou2_2" x1="0" y1="0" x2="1" y2="1"><stop offset="0" stop-color="#f26969"/><stop offset="1" stop-color="#cb3a3a"/></linearGradient><linearGradient id="bhou2_3" x1="0" y1="0" x2="1" y2="1"><stop offset="0" stop-color="#c84e4e"/><stop offset="1" stop-color="#941616"/></linearGradient><radialGradient id="bhou2_4"><stop offset="0" stop-color="#000" stop-opacity="0.35"/><stop offset="1" stop-color="#000" stop-opacity="0"/></radialGradient><linearGradient id="bhou2_5" x1="0" y1="0" x2="1" y2="1"><stop offset="0" stop-color="#f7b13c"/><stop offset="1" stop-color="#d08609"/></linearGradient><linearGradient id="bhou2_6" x1="0" y1="0" x2="1" y2="1"><stop offset="0" stop-color="#aa6a43"/><stop offset="1" stop-color="#75330b"/></linearGradient><radialGradient id="bhou2_7"><stop offset="0" stop-color="#000" stop-opacity="0.35"/><stop offset="1" stop-color="#000" stop-opacity="0"/></radialGradient><linearGradient id="bhou2_8" x1="0" y1="0" x2="1" y2="1"><stop offset="0" stop-color="#45b56e"/><stop offset="1" stop-color="#138b3f"/></linearGradient><linearGradient id="bhou2_9" x1="0" y1="0" x2="1" y2="1"><stop offset="0" stop-color="#48795b"/><stop offset="1" stop-color="#104224"/></linearGradient><radialGradient id="bhou2_10"><stop offset="0" stop-color="#000" stop-opacity="0.35"/><stop offset="1" stop-color="#000" stop-opacity="0"/></radialGradient><linearGradient id="bhou2_11" x1="0" y1="0" x2="1" y2="0"><stop offset="0" stop-color="#1b90a1"/><stop offset="0.3" stop-color="#60ccdc"/><stop offset="0.6" stop-color="#22b8cf"/><stop offset="1" stop-color="#188495"/></linearGradient><radialGradient id="bhou2_12"><stop offset="0" stop-color="#000" stop-opacity="0.35"/><stop offset="1" stop-color="#000" stop-opacity="0"/></radialGradient><linearGradient id="bhou2_13" x1="0" y1="0" x2="1" y2="0"><stop offset="0" stop-color="#9097a1"/><stop offset="0.3" stop-color="#ccd3dc"/><stop offset="0.6" stop-color="#b8c2ce"/><stop offset="1" stop-color="#848c94"/></linearGradient><linearGradient id="bhou2_14" x1="0" y1="0" x2="1" y2="1"><stop offset="0" stop-color="#b0bac6"/><stop offset="1" stop-color="#7b8692"/></linearGradient><linearGradient id="bhou2_15" x1="0" y1="0" x2="1" y2="1"><stop offset="0" stop-color="#d6dee8"/><stop offset="1" stop-color="#a2aab4"/></linearGradient></defs><rect width="1200" height="500" fill="url(#bhou2_0)"/><circle cx="300" cy="270" r="260" fill="none" stroke="#fff" stroke-width="6" opacity="0.18"/><circle cx="300" cy="270" r="190" fill="none" stroke="#fff" stroke-width="5" opacity="0.15"/><circle cx="300" cy="270" r="120" fill="none" stroke="#fff" stroke-width="4" opacity="0.12"/><circle cx="300" cy="270" r="120" fill="#fff" opacity=".1"/><path d="M820 120 Q960 40 1100 120 T1200 100 L1200 500 L760 500Q800 300 820 120Z" fill="#fff1d6" opacity=".16"/><circle cx="1130" cy="400" r="130" fill="#000" opacity=".09"/><path d="M0 460 Q300 400 600 450 T1200 420 L1200 500 L0 500Z" fill="#000" opacity=".12"/><circle cx="238.5" cy="271.3" r="6.5" fill="#fff" opacity="0.4"/><circle cx="51.9" cy="220.4" r="7.4" fill="#fff" opacity="0.4"/><circle cx="613.9" cy="256" r="7.4" fill="#fff" opacity="0.3"/><circle cx="85.9" cy="235.1" r="5.5" fill="#fff" opacity="0.4"/><circle cx="413.8" cy="328.8" r="7.5" fill="#fff" opacity="0.4"/><circle cx="577" cy="388.8" r="3.4" fill="#fff" opacity="0.2"/><circle cx="546.9" cy="249.4" r="6.2" fill="#fff" opacity="0.2"/><circle cx="208.6" cy="436.5" r="6.1" fill="#fff" opacity="0.2"/><circle cx="50.2" cy="358.6" r="7.5" fill="#fff" opacity="0.4"/><circle cx="375.5" cy="407.4" r="6.1" fill="#fff" opacity="0.3"/><circle cx="373.3" cy="356.7" r="6.2" fill="#fff" opacity="0.2"/><circle cx="534.4" cy="444.9" r="6.5" fill="#fff" opacity="0.2"/><circle cx="608.8" cy="381.8" r="4.9" fill="#fff" opacity="0.4"/><circle cx="415.3" cy="116.8" r="6.5" fill="#fff" opacity="0.4"/><g transform="translate(-40 131) scale(1.5) rotate(-14 100 100)"><g transform="translate(-8 130) scale(0.6) rotate(0 100 100)"><ellipse cx="100" cy="186" rx="56" ry="6" fill="url(#bhou2_1)"/><g><rect x="48" y="62" width="104" height="122" rx="22" fill="#e8f1f8" opacity=".55"/><rect x="52" y="86" width="96" height="94" rx="18" fill="url(#bhou2_2)" /><g transform="translate(100 136)"><circle cx="0" cy="0" r="14" fill="#fff" opacity=".8"/></g><rect x="54" y="42" width="92" height="24" rx="6" fill="url(#bhou2_3)" /><rect x="54" y="56" width="92" height="4" rx="2" fill="#000" opacity=".12"/><path d="M62 84 L62 168" stroke="#fff" stroke-width="7" stroke-linecap="round" opacity=".45"/></g></g><g transform="translate(74 130) scale(0.6) rotate(0 100 100)"><ellipse cx="100" cy="186" rx="56" ry="6" fill="url(#bhou2_4)"/><g><rect x="48" y="62" width="104" height="122" rx="22" fill="#e8f1f8" opacity=".55"/><rect x="52" y="86" width="96" height="94" rx="18" fill="url(#bhou2_5)" /><g transform="translate(100 136)"><circle cx="0" cy="0" r="14" fill="#fff" opacity=".8"/></g><rect x="54" y="42" width="92" height="24" rx="6" fill="url(#bhou2_6)" /><rect x="54" y="56" width="92" height="4" rx="2" fill="#000" opacity=".12"/><path d="M62 84 L62 168" stroke="#fff" stroke-width="7" stroke-linecap="round" opacity=".45"/></g></g><g transform="translate(33 80) scale(0.6) rotate(0 100 100)"><ellipse cx="100" cy="186" rx="56" ry="6" fill="url(#bhou2_7)"/><g><rect x="48" y="62" width="104" height="122" rx="22" fill="#e8f1f8" opacity=".55"/><rect x="52" y="86" width="96" height="94" rx="18" fill="url(#bhou2_8)" /><g transform="translate(100 136)"><circle cx="0" cy="0" r="14" fill="#fff" opacity=".8"/></g><rect x="54" y="42" width="92" height="24" rx="6" fill="url(#bhou2_9)" /><rect x="54" y="56" width="92" height="4" rx="2" fill="#000" opacity=".12"/><path d="M62 84 L62 168" stroke="#fff" stroke-width="7" stroke-linecap="round" opacity=".45"/></g></g><ellipse cx="100" cy="184" rx="76" ry="5" fill="#000" opacity=".08"/></g><g transform="translate(355 131.7) scale(1.6) rotate(12 100 100)"><ellipse cx="100" cy="186" rx="66" ry="7" fill="url(#bhou2_10)"/><path d="M34 74 Q100 -6 166 74" stroke="#64748b" stroke-width="6" fill="none"/><path d="M36 74 L164 74 L150 172 Q148 186 132 186 L68 186 Q52 186 50 172Z" fill="url(#bhou2_11)"/><ellipse cx="100" cy="74" rx="64" ry="10" fill="#0e7490" /><ellipse cx="100" cy="76" rx="56" ry="7" fill="#67e8f9" /><rect x="46" y="94" width="108" height="10" rx="0" fill="#fff" opacity=".4"/><circle cx="70" cy="60" r="10" fill="#fff" opacity=".7"/><circle cx="92" cy="44" r="6" fill="#fff" opacity=".7"/><circle cx="120" cy="56" r="9" fill="#fff" opacity=".6"/></g><g transform="translate(85 55.1) scale(2.2) rotate(0 100 100)"><ellipse cx="100" cy="184" rx="76" ry="7" fill="url(#bhou2_12)"/><rect x="20" y="100" width="24" height="12" rx="6" fill="#3f3f46" /><rect x="156" y="100" width="24" height="12" rx="6" fill="#3f3f46" /><path d="M36 90 L164 90 L156 164 Q154 184 134 184 L66 184 Q46 184 44 164Z" fill="url(#bhou2_13)"/><rect x="32" y="76" width="136" height="18" rx="8" fill="url(#bhou2_14)" /><path d="M62 76 Q100 24 138 76Z" fill="url(#bhou2_15)"/><circle cx="100" cy="36" r="10" fill="#ef4444" /><rect x="44" y="110" width="112" height="20" rx="4" fill="#ef4444" opacity=".85"/><path d="M54 100 L58 162" stroke="#fff" stroke-width="6" stroke-linecap="round" opacity=".5"/></g><path d="M470 60 Q470 80 490 80 Q470 80 470 100 Q470 80 450 80 Q470 80 470 60Z" fill="#fff" opacity="0.7"/><path d="M110 54 Q110 70 126 70 Q110 70 110 86 Q110 70 94 70 Q110 70 110 54Z" fill="#fff" opacity="0.7"/><path d="M600 288 Q600 300 612 300 Q600 300 600 312 Q600 300 588 300 Q600 300 600 288Z" fill="#fff" opacity="0.6"/><circle cx="540" cy="400" r="8" fill="#fff" opacity=".35"/></svg>
