<svg xmlns="http://www.w3.org/2000/svg" viewBox="0 0 1200 500" width="1200" height="500"><defs><linearGradient id="bkid2_0" x1="1" y1="0" x2="0" y2="1"><stop offset="0" stop-color="#7dd3fc"/><stop offset="1" stop-color="#7c3aed"/></linearGradient><radialGradient id="bkid2_1"><stop offset="0" stop-color="#000" stop-opacity="0.35"/><stop offset="1" stop-color="#000" stop-opacity="0"/></radialGradient><linearGradient id="bkid2_2" x1="0" y1="0" x2="1" y2="1"><stop offset="0" stop-color="#fdeba1"/><stop offset="1" stop-color="#e4cf7c"/></linearGradient><linearGradient id="bkid2_3" x1="0" y1="0" x2="1" y2="1"><stop offset="0" stop-color="#fabbdd"/><stop offset="1" stop-color="#c786aa"/></linearGradient><linearGradient id="bkid2_4" x1="0" y1="0" x2="1" y2="0"><stop offset="0" stop-color="#afbdc6"/><stop offset="0.3" stop-color="#e9f6fe"/><stop offset="0.6" stop-color="#e0f2fe"/><stop offset="1" stop-color="#a1aeb7"/></linearGradient><radialGradient id="bkid2_5"><stop offset="0" stop-color="#000" stop-opacity="0.35"/><stop offset="1" stop-color="#000" stop-opacity="0"/></radialGradient><radialGradient id="bkid2_6" cx="0.35" cy="0.3" r="0.8"><stop offset="0" stop-color="#d9b595"/><stop offset="0.5" stop-color="#b9783f"/><stop offset="1" stop-color="#82542c"/></radialGradient><radialGradient id="bkid2_7" cx="0.35" cy="0.3" r="0.8"><stop offset="0" stop-color="#d9b595"/><stop offset="0.5" stop-color="#b9783f"/><stop offset="1" stop-color="#82542c"/></radialGradient><radialGradient id="bkid2_8" cx="0.35" cy="0.3" r="0.8"><stop offset="0" stop-color="#d9b595"/><stop offset="0.5" stop-color="#b9783f"/><stop offset="1" stop-color="#82542c"/></radialGradient><radialGradient id="bkid2_9" cx="0.35" cy="0.3" r="0.8"><stop offset="0" stop-color="#d9b595"/><stop offset="0.5" stop-color="#b9783f"/><stop offset="1" stop-color="#82542c"/></radialGradient><radialGradient id="bkid2_10" cx="0.35" cy="0.3" r="0.8"><stop offset="0" stop-color="#d9b595"/><stop offset="0.5" stop-color="#b9783f"/><stop offset="1" stop-color="#82542c"/></radialGradient><radialGradient id="bkid2_11" cx="0.35" cy="0.3" r="0.8"><stop offset="0" stop-color="#d9b595"/><stop offset="0.5" stop-color="#b9783f"/><stop offset="1" stop-color="#82542c"/></radialGradient><radialGradient id="bkid2_12" cx="0.35" cy="0.3" r="0.8"><stop offset="0" stop-color="#dfbc9b"/><stop offset="0.5" stop-color="#c4854a"/><stop offset="1" stop-color="#895d34"/></radialGradient><radialGradient id="bkid2_13" cx="0.35" cy="0.3" r="0.8"><stop offset="0" stop-color="#dfbc9b"/><stop offset="0.5" stop-color="#c4854a"/><stop offset="1" stop-color="#895d34"/></radialGradient><radialGradient id="bkid2_14"><stop offset="0" stop-color="#000" stop-opacity="0.35"/><stop offset="1" stop-color="#000" stop-opacity="0"/></radialGradient><radialGradient id="bkid2_15" cx="0.35" cy="0.3" r="0.8"><stop offset="0" stop-color="#d9b595"/><stop offset="0.5" stop-color="#b9783f"/><stop offset="1" stop-color="#82542c"/></radialGradient><radialGradient id="bkid2_16" cx="0.35" cy="0.3" r="0.8"><stop offset="0" stop-color="#d9b595"/><stop offset="0.5" stop-color="#b9783f"/><stop offset="1" stop-color="#82542c"/></radialGradient><radialGradient id="bkid2_17" cx="0.35" cy="0.3" r="0.8"><stop offset="0" stop-color="#d9b595"/><stop offset="0.5" stop-color="#b9783f"/><stop offset="1" stop-color="#82542c"/></radialGradient><radialGradient id="bkid2_18" cx="0.35" cy="0.3" r="0.8"><stop offset="0" stop-color="#d9b595"/><stop offset="0.5" stop-color="#b9783f"/><stop offset="1" stop-color="#82542c"/></radialGradient><radialGradient id="bkid2_19" cx="0.35" cy="0.3" r="0.8"><stop offset="0" stop-color="#d9b595"/><stop offset="0.5" stop-color="#b9783f"/><stop offset="1" stop-color="#82542c"/></radialGradient><radialGradient id="bkid2_20" cx="0.35" cy="0.3" r="0.8"><stop offset="0" stop-color="#d9b595"/><stop offset="0.5" stop-color="#b9783f"/><stop offset="1" stop-color="#82542c"/></radialGradient><radialGradient id="bkid2_21" cx="0.35" cy="0.3" r="0.8"><stop offset="0" stop-color="#dfbc9b"/><stop offset="0.5" stop-color="#c4854a"/><stop offset="1" stop-color="#895d34"/></radialGradient><radialGradient id="bkid2_22" cx="0.35" cy="0.3" r="0.8"><stop offset="0" stop-color="#dfbc9b"/><stop offset="0.5" stop-color="#c4854a"/><stop offset="1" stop-color="#895d34"/></radialGradient></defs><rect width="1200" height="500" fill="url(#bkid2_0)"/><circle cx="300" cy="270" r="260" fill="none" stroke="#fff" stroke-width="6" opacity="0.18"/><circle cx="300" cy="270" r="190" fill="none" stroke="#fff" stroke-width="5" opacity="0.15"/><circle cx="300" cy="270" r="120" fill="none" stroke="#fff" stroke-width="4" opacity="0.12"/><circle cx="300" cy="270" r="120" fill="#fff" opacity=".1"/><path d="M820 120 Q960 40 1100 120 T1200 100 L1200 500 L760 500Q800 300 820 120Z" fill="#fde68a" opacity=".16"/><circle cx="1130" cy="400" r="130" fill="#000" opacity=".09"/><path d="M0 460 Q300 400 600 450 T1200 420 L1200 500 L0 500Z" fill="#000" opacity=".12"/><circle cx="519.9" cy="45.9" r="4.5" fill="#fff" opacity="0.2"/><circle cx="95.9" cy="241" r="3.8" fill="#fff" opacity="0.3"/><circle cx="280.9" cy="37.6" r="7.9" fill="#fff" opacity="0.2"/><circle cx="54.4" cy="331.1" r="7.3" fill="#fff" opacity="0.4"/><circle cx="251.7" cy="111.9" r="4.6" fill="#fff" opacity="0.3"/><circle cx="448" cy="275.4" r="4.5" fill="#fff" opacity="0.2"/><circle cx="387" cy="271.1" r="4.4" fill="#fff" opacity="0.2"/><circle cx="56.5" cy="356.5" r="4.7" fill="#fff" opacity="0.2"/><circle cx="129.5" cy="157.5" r="6.1" fill="#fff" opacity="0.3"/><circle cx="412" cy="212.7" r="4.2" fill="#fff" opacity="0.4"/><circle cx="470.7" cy="97.5" r="7.7" fill="#fff" opacity="0.3"/><circle cx="114.8" cy="420" r="7.6" fill="#fff" opacity="0.3"/><circle cx="86.8" cy="335.8" r="4.8" fill="#fff" opacity="0.2"/><circle cx="338.3" cy="155.7" r="3.6" fill="#fff" opacity="0.2"/><g transform="translate(-40 131) scale(1.5) rotate(-14 100 100)"><ellipse cx="100" cy="186" rx="50" ry="6" fill="url(#bkid2_1)"/><path d="M84 52 Q84 24 100 18 Q116 24 116 52Z" fill="url(#bkid2_2)"/><rect x="70" y="48" width="60" height="18" rx="6" fill="url(#bkid2_3)" /><path d="M66 70 L134 70 L138 172 Q138 186 124 186 L76 186 Q62 186 62 172Z" fill="url(#bkid2_4)" opacity=".95"/><path d="M64 120 L136 120 L137 172 Q137 184 124 184 L76 184 Q63 184 63 172Z" fill="#f8fafc" opacity=".9"/><path d="M112 92 L132 92" stroke="#0ea5e9" stroke-width="2.5"/><path d="M118 108 L132 108" stroke="#0ea5e9" stroke-width="2.5"/><path d="M112 124 L132 124" stroke="#0ea5e9" stroke-width="2.5"/><path d="M118 140 L132 140" stroke="#0ea5e9" stroke-width="2.5"/><path d="M112 156 L132 156" stroke="#0ea5e9" stroke-width="2.5"/><g transform="translate(96 152) scale(.5)"><path d="M0 14 C-30 -6 -14 -26 0 -10 C14 -26 30 -6 0 14Z" fill="#f472b6"/></g><path d="M72 80 L74 172" stroke="#fff" stroke-width="6" stroke-linecap="round" opacity=".6"/></g><g transform="translate(355 131.7) scale(1.6) rotate(12 100 100)"><ellipse cx="100" cy="186" rx="66" ry="6" fill="url(#bkid2_5)"/><circle cx="66" cy="38" r="15" fill="url(#bkid2_6)" /><circle cx="134" cy="38" r="15" fill="url(#bkid2_7)" /><circle cx="66" cy="38" r="8" fill="#f3c9a0" /><circle cx="134" cy="38" r="8" fill="#f3c9a0" /><ellipse cx="58" cy="130" rx="14" ry="26" fill="url(#bkid2_8)" transform="rotate(25 58 130)"/><ellipse cx="142" cy="130" rx="14" ry="26" fill="url(#bkid2_9)" transform="rotate(-25 142 130)"/><ellipse cx="72" cy="176" rx="22" ry="14" fill="url(#bkid2_10)" /><ellipse cx="128" cy="176" rx="22" ry="14" fill="url(#bkid2_11)" /><ellipse cx="72" cy="178" rx="12" ry="7" fill="#f3c9a0" /><ellipse cx="128" cy="178" rx="12" ry="7" fill="#f3c9a0" /><ellipse cx="100" cy="140" rx="44" ry="46" fill="url(#bkid2_12)" /><ellipse cx="100" cy="146" rx="26" ry="28" fill="#f3d2ac" /><circle cx="100" cy="70" r="38" fill="url(#bkid2_13)" /><ellipse cx="100" cy="82" rx="17" ry="13" fill="#f3d2ac" /><ellipse cx="100" cy="76" rx="6" ry="4" fill="#3b2314" /><path d="M100 80 L100 86 M92 90 Q100 96 108 90" stroke="#3b2314" stroke-width="2.5" fill="none" stroke-linecap="round"/><circle cx="86" cy="62" r="4.5" fill="#1f1410" /><circle cx="114" cy="62" r="4.5" fill="#1f1410" /><circle cx="87.5" cy="60.5" r="1.5" fill="#fff" /><circle cx="115.5" cy="60.5" r="1.5" fill="#fff" /><path d="M100 112 L78 102 L78 122Z M100 112 L122 102 L122 122Z" fill="#ef4444"/><circle cx="100" cy="112" r="6" fill="#b91c1c" /><ellipse cx="80" cy="50" rx="8" ry="4" fill="#fff" opacity=".35" transform="rotate(-30 80 50)"/></g><g transform="translate(85 55.1) scale(2.2) rotate(0 100 100)"><ellipse cx="100" cy="186" rx="66" ry="6" fill="url(#bkid2_14)"/><circle cx="66" cy="38" r="15" fill="url(#bkid2_15)" /><circle cx="134" cy="38" r="15" fill="url(#bkid2_16)" /><circle cx="66" cy="38" r="8" fill="#f3c9a0" /><circle cx="134" cy="38" r="8" fill="#f3c9a0" /><ellipse cx="58" cy="130" rx="14" ry="26" fill="url(#bkid2_17)" transform="rotate(25 58 130)"/><ellipse cx="142" cy="130" rx="14" ry="26" fill="url(#bkid2_18)" transform="rotate(-25 142 130)"/><ellipse cx="72" cy="176" rx="22" ry="14" fill="url(#bkid2_19)" /><ellipse cx="128" cy="176" rx="22" ry="14" fill="url(#bkid2_20)" /><ellipse cx="72" cy="178" rx="12" ry="7" fill="#f3c9a0" /><ellipse cx="128" cy="178" rx="12" ry="7" fill="#f3c9a0" /><ellipse cx="100" cy="140" rx="44" ry="46" fill="url(#bkid2_21)" /><ellipse cx="100" cy="146" rx="26" ry="28" fill="#f3d2ac" /><circle cx="100" cy="70" r="38" fill="url(#bkid2_22)" /><ellipse cx="100" cy="82" rx="17" ry="13" fill="#f3d2ac" /><ellipse cx="100" cy="76" rx="6" ry="4" fill="#3b2314" /><path d="M100 80 L100 86 M92 90 Q100 96 108 90" stroke="#3b2314" stroke-width="2.5" fill="none" stroke-linecap="round"/><circle cx="86" cy="62" r="4.5" fill="#1f1410" /><circle cx="114" cy="62" r="4.5" fill="#1f1410" /><circle cx="87.5" cy="60.5" r="1.5" fill="#fff" /><circle cx="115.5" cy="60.5" r="1.5" fill="#fff" /><path d="M100 112 L78 102 L78 122Z M100 112 L122 102 L122 122Z" fill="#ef4444"/><circle cx="100" cy="112" r="6" fill="#b91c1c" /><ellipse cx="80" cy="50" rx="8" ry="4" fill="#fff" opacity=".35" transform="rotate(-30 80 50)"/></g><path d="M470 60 Q470 80 490 80 Q470 80 470 100 Q470 80 450 80 Q470 80 470 60Z" fill="#fff" opacity="0.7"/><path d="M110 54 Q110 70 126 70 Q110 70 110 86 Q110 70 94 70 Q110 70 110 54Z" fill="#fff" opacity="0.7"/><path d="M600 288 Q600 300 612 300 Q600 300 600 312 Q600 300 588 300 Q600 300 600 288Z" fill="#fff" opacity="0.6"/><circle cx="540" cy="400" r="8" fill="#fff" opacity=".35"/></svg>
