<svg xmlns="http://www.w3.org/2000/svg" viewBox="0 0 1200 500" width="1200" height="500"><defs><linearGradient id="bpar2_0" x1="1" y1="0" x2="0" y2="1"><stop offset="0" stop-color="#f0abfc"/><stop offset="1" stop-color="#a21caf"/></linearGradient><radialGradient id="bpar2_1"><stop offset="0" stop-color="#000" stop-opacity="0.35"/><stop offset="1" stop-color="#000" stop-opacity="0"/></radialGradient><linearGradient id="bpar2_2" x1="0" y1="0" x2="1" y2="1"><stop offset="0" stop-color="#f06dad"/><stop offset="1" stop-color="#bd3a7a"/></linearGradient><linearGradient id="bpar2_3" x1="0" y1="0" x2="1" y2="1"><stop offset="0" stop-color="#fccd54"/><stop offset="1" stop-color="#c9991d"/></linearGradient><radialGradient id="bpar2_4" cx="0.35" cy="0.3" r="0.8"><stop offset="0" stop-color="#feee9a"/><stop offset="0.5" stop-color="#fde047"/><stop offset="1" stop-color="#b19d32"/></radialGradient><radialGradient id="bpar2_5"><stop offset="0" stop-color="#000" stop-opacity="0.35"/><stop offset="1" stop-color="#000" stop-opacity="0"/></radialGradient><linearGradient id="bpar2_6" x1="0" y1="0" x2="1" y2="1"><stop offset="0" stop-color="#a27df8"/><stop offset="1" stop-color="#6f4ac5"/></linearGradient><linearGradient id="bpar2_7" x1="0" y1="0" x2="1" y2="1"><stop offset="0" stop-color="#b9a2fb"/><stop offset="1" stop-color="#8e76d5"/></linearGradient><linearGradient id="bpar2_8" x1="0" y1="0" x2="1" y2="1"><stop offset="0" stop-color="#fccc50"/><stop offset="1" stop-color="#e2ac20"/></linearGradient><linearGradient id="bpar2_9" x1="0" y1="0" x2="1" y2="1"><stop offset="0" stop-color="#fccf5b"/><stop offset="1" stop-color="#e2ac20"/></linearGradient><linearGradient id="bpar2_10" x1="0" y1="0" x2="1" y2="1"><stop offset="0" stop-color="#fccc50"/><stop offset="1" stop-color="#d5a21f"/></linearGradient><linearGradient id="bpar2_11" x1="0" y1="0" x2="1" y2="1"><stop offset="0" stop-color="#f7b13c"/><stop offset="1" stop-color="#d08609"/></linearGradient><radialGradient id="bpar2_12" cx="0.35" cy="0.3" r="0.8"><stop offset="0" stop-color="#fddc87"/><stop offset="0.5" stop-color="#fbbf24"/><stop offset="1" stop-color="#b08619"/></radialGradient><radialGradient id="bpar2_13"><stop offset="0" stop-color="#000" stop-opacity="0.35"/><stop offset="1" stop-color="#000" stop-opacity="0"/></radialGradient><radialGradient id="bpar2_14" cx="0.35" cy="0.3" r="0.8"><stop offset="0" stop-color="#f69898"/><stop offset="0.5" stop-color="#ef4444"/><stop offset="1" stop-color="#a73030"/></radialGradient><radialGradient id="bpar2_15" cx="0.35" cy="0.3" r="0.8"><stop offset="0" stop-color="#93bafa"/><stop offset="0.5" stop-color="#3b82f6"/><stop offset="1" stop-color="#295bac"/></radialGradient><radialGradient id="bpar2_16" cx="0.35" cy="0.3" r="0.8"><stop offset="0" stop-color="#fce37e"/><stop offset="0.5" stop-color="#facc15"/><stop offset="1" stop-color="#af8f0f"/></radialGradient></defs><rect width="1200" height="500" fill="url(#bpar2_0)"/><circle cx="300" cy="270" r="260" fill="none" stroke="#fff" stroke-width="6" opacity="0.18"/><circle cx="300" cy="270" r="190" fill="none" stroke="#fff" stroke-width="5" opacity="0.15"/><circle cx="300" cy="270" r="120" fill="none" stroke="#fff" stroke-width="4" opacity="0.12"/><circle cx="300" cy="270" r="120" fill="#fff" opacity=".1"/><path d="M820 120 Q960 40 1100 120 T1200 100 L1200 500 L760 500Q800 300 820 120Z" fill="#fde047" opacity=".16"/><circle cx="1130" cy="400" r="130" fill="#000" opacity=".09"/><path d="M0 460 Q300 400 600 450 T1200 420 L1200 500 L0 500Z" fill="#000" opacity=".12"/><circle cx="292.7" cy="165.2" r="5.8" fill="#fff" opacity="0.3"/><circle cx="156.3" cy="78.1" r="3.2" fill="#fff" opacity="0.4"/><circle cx="39.7" cy="112.4" r="7.7" fill="#fff" opacity="0.3"/><circle cx="448.2" cy="390.5" r="5.2" fill="#fff" opacity="0.4"/><circle cx="293.4" cy="294.8" r="4.6" fill="#fff" opacity="0.4"/><circle cx="253.8" cy="435.3" r="6.3" fill="#fff" opacity="0.4"/><circle cx="347.1" cy="82.2" r="5" fill="#fff" opacity="0.2"/><circle cx="216.3" cy="168.5" r="4.1" fill="#fff" opacity="0.4"/><circle cx="337.1" cy="80.3" r="3.9" fill="#fff" opacity="0.3"/><circle cx="385.1" cy="305.6" r="6.1" fill="#fff" opacity="0.3"/><circle cx="81.4" cy="169" r="6.5" fill="#fff" opacity="0.2"/><circle cx="540.7" cy="326.1" r="6.3" fill="#fff" opacity="0.2"/><circle cx="133.9" cy="104.1" r="5.6" fill="#fff" opacity="0.3"/><circle cx="612.2" cy="110.6" r="6.8" fill="#fff" opacity="0.2"/><g transform="translate(-40 131) scale(1.5) rotate(-14 100 100)"><ellipse cx="100" cy="186" rx="62" ry="5" fill="url(#bpar2_1)"/><path d="M100 22 L158 172 L42 172Z" fill="url(#bpar2_2)"/><path d="M100 22 L158 172 L100 172Z" fill="#000" opacity=".1"/><path d="M84 62 L126 78 M72 94 L136 118 M60 124 L148 154" stroke="#fde047" stroke-width="7" stroke-linecap="round" opacity=".9"/><circle cx="88" cy="108" r="5" fill="#fff" opacity=".9"/><circle cx="112" cy="140" r="5" fill="#fff" opacity=".9"/><circle cx="78" cy="150" r="5" fill="#38bdf8" opacity=".9"/><circle cx="128" cy="112" r="5" fill="#38bdf8" opacity=".9"/><circle cx="100" cy="86" r="5" fill="#fff" opacity=".9"/><rect x="38" y="166" width="124" height="14" rx="7" fill="url(#bpar2_3)" /><rect x="42" y="176" width="5" height="10" rx="2.5" fill="#ec4899" /><rect x="52" y="176" width="5" height="10" rx="2.5" fill="#38bdf8" /><rect x="62" y="176" width="5" height="10" rx="2.5" fill="#fde047" /><rect x="72" y="176" width="5" height="10" rx="2.5" fill="#ec4899" /><rect x="82" y="176" width="5" height="10" rx="2.5" fill="#38bdf8" /><rect x="92" y="176" width="5" height="10" rx="2.5" fill="#fde047" /><rect x="102" y="176" width="5" height="10" rx="2.5" fill="#ec4899" /><rect x="112" y="176" width="5" height="10" rx="2.5" fill="#38bdf8" /><rect x="122" y="176" width="5" height="10" rx="2.5" fill="#fde047" /><rect x="132" y="176" width="5" height="10" rx="2.5" fill="#ec4899" /><rect x="142" y="176" width="5" height="10" rx="2.5" fill="#38bdf8" /><rect x="152" y="176" width="5" height="10" rx="2.5" fill="#fde047" /><circle cx="100" cy="20" r="14" fill="url(#bpar2_4)" /><path d="M62 150 L88 56" stroke="#fff" stroke-width="5" stroke-linecap="round" opacity=".25"/></g><g transform="translate(355 131.7) scale(1.6) rotate(12 100 100)"><ellipse cx="100" cy="186" rx="76" ry="6" fill="url(#bpar2_5)"/><rect x="38" y="92" width="124" height="92" rx="8" fill="url(#bpar2_6)" /><rect x="28" y="70" width="144" height="30" rx="8" fill="url(#bpar2_7)" /><rect x="88" y="70" width="24" height="114" rx="0" fill="url(#bpar2_8)" /><rect x="88" y="70" width="24" height="30" rx="0" fill="url(#bpar2_9)" /><path d="M100 70 Q56 22 52 56 Q50 78 100 70Z" fill="url(#bpar2_10)"/><path d="M100 70 Q144 22 148 56 Q150 78 100 70Z" fill="url(#bpar2_11)"/><circle cx="100" cy="68" r="11" fill="url(#bpar2_12)" /><path d="M46 100 L46 176" stroke="#fff" stroke-width="6" stroke-linecap="round" opacity=".3"/><circle cx="70" cy="130" r="4" fill="#fff" opacity=".4"/><circle cx="134" cy="150" r="4" fill="#fff" opacity=".4"/><circle cx="66" cy="160" r="3" fill="#fff" opacity=".4"/></g><g transform="translate(85 55.1) scale(2.2) rotate(0 100 100)"><ellipse cx="100" cy="186" rx="34" ry="5" fill="url(#bpar2_13)"/><path d="M58 126 Q66.4 140 100 184" stroke="#e2e8f0" stroke-width="2.5" fill="none"/><path d="M104 104 Q103.2 140 100 184" stroke="#e2e8f0" stroke-width="2.5" fill="none"/><path d="M146 132 Q136.8 140 100 184" stroke="#e2e8f0" stroke-width="2.5" fill="none"/><ellipse cx="58" cy="80" rx="33" ry="42" fill="url(#bpar2_14)" transform="rotate(-8 58 80)"/><path d="M52 130 L64 130 L58 120Z" fill="#b33333"/><ellipse cx="46" cy="66" rx="6" ry="13" fill="#fff" opacity=".5" transform="rotate(25 46 66)"/><ellipse cx="104" cy="58" rx="33" ry="42" fill="url(#bpar2_15)" transform="rotate(0 104 58)"/><path d="M98 108 L110 108 L104 98Z" fill="#2c62b9"/><ellipse cx="92" cy="44" rx="6" ry="13" fill="#fff" opacity=".5" transform="rotate(25 92 44)"/><ellipse cx="146" cy="86" rx="33" ry="42" fill="url(#bpar2_16)" transform="rotate(8 146 86)"/><path d="M140 136 L152 136 L146 126Z" fill="#bc9910"/><ellipse cx="134" cy="72" rx="6" ry="13" fill="#fff" opacity=".5" transform="rotate(25 134 72)"/><rect x="90" y="178" width="20" height="8" rx="3" fill="#a21caf" /></g><path d="M470 60 Q470 80 490 80 Q470 80 470 100 Q470 80 450 80 Q470 80 470 60Z" fill="#fff" opacity="0.7"/><path d="M110 54 Q110 70 126 70 Q110 70 110 86 Q110 70 94 70 Q110 70 110 54Z" fill="#fff" opacity="0.7"/><path d="M600 288 Q600 300 612 300 Q600 300 600 312 Q600 300 588 300 Q600 300 600 288Z" fill="#fff" opacity="0.6"/><circle cx="540" cy="400" r="8" fill="#fff" opacity=".35"/></svg>
