<svg xmlns="http://www.w3.org/2000/svg" viewBox="0 0 1200 500" width="1200" height="500"><defs><linearGradient id="bsan2_0" x1="1" y1="0" x2="0" y2="1"><stop offset="0" stop-color="#22d3ee"/><stop offset="1" stop-color="#0e7490"/></linearGradient><radialGradient id="bsan2_1"><stop offset="0" stop-color="#000" stop-opacity="0.35"/><stop offset="1" stop-color="#000" stop-opacity="0"/></radialGradient><linearGradient id="bsan2_2" x1="0" y1="0" x2="1" y2="0"><stop offset="0" stop-color="#1b90a1"/><stop offset="0.3" stop-color="#60ccdc"/><stop offset="0.6" stop-color="#22b8cf"/><stop offset="1" stop-color="#188495"/></linearGradient><radialGradient id="bsan2_3"><stop offset="0" stop-color="#000" stop-opacity="0.35"/><stop offset="1" stop-color="#000" stop-opacity="0"/></radialGradient><linearGradient id="bsan2_4" x1="0" y1="0" x2="0" y2="1"><stop offset="0" stop-color="#f3f6fa"/><stop offset="1" stop-color="#9aa8b6"/></linearGradient><linearGradient id="bsan2_5" x1="0" y1="0" x2="1" y2="0"><stop offset="0" stop-color="#9da5ad"/><stop offset="0.3" stop-color="#d8dfe7"/><stop offset="0.6" stop-color="#c9d3de"/><stop offset="1" stop-color="#9198a0"/></linearGradient><linearGradient id="bsan2_6" x1="0" y1="0" x2="0" y2="1"><stop offset="0" stop-color="#f3f6fa"/><stop offset="1" stop-color="#8b99a8"/></linearGradient><linearGradient id="bsan2_7" x1="0" y1="0" x2="1" y2="1"><stop offset="0" stop-color="#c7d0da"/><stop offset="1" stop-color="#929ca6"/></linearGradient><linearGradient id="bsan2_8" x1="0" y1="0" x2="1" y2="1"><stop offset="0" stop-color="#669ef8"/><stop offset="1" stop-color="#2f68c5"/></linearGradient><linearGradient id="bsan2_9" x1="0" y1="0" x2="1" y2="1"><stop offset="0" stop-color="#f36d6d"/><stop offset="1" stop-color="#bf3636"/></linearGradient><radialGradient id="bsan2_10"><stop offset="0" stop-color="#000" stop-opacity="0.35"/><stop offset="1" stop-color="#000" stop-opacity="0"/></radialGradient><linearGradient id="bsan2_11" x1="0" y1="0" x2="0" y2="1"><stop offset="0" stop-color="#f3f6fa"/><stop offset="1" stop-color="#9aa8b6"/></linearGradient><linearGradient id="bsan2_12" x1="0" y1="0" x2="1" y2="0"><stop offset="0" stop-color="#9da5ad"/><stop offset="0.3" stop-color="#d8dfe7"/><stop offset="0.6" stop-color="#c9d3de"/><stop offset="1" stop-color="#9198a0"/></linearGradient><linearGradient id="bsan2_13" x1="0" y1="0" x2="0" y2="1"><stop offset="0" stop-color="#f3f6fa"/><stop offset="1" stop-color="#8b99a8"/></linearGradient><linearGradient id="bsan2_14" x1="0" y1="0" x2="1" y2="1"><stop offset="0" stop-color="#c7d0da"/><stop offset="1" stop-color="#929ca6"/></linearGradient><linearGradient id="bsan2_15" x1="0" y1="0" x2="1" y2="1"><stop offset="0" stop-color="#669ef8"/><stop offset="1" stop-color="#2f68c5"/></linearGradient><linearGradient id="bsan2_16" x1="0" y1="0" x2="1" y2="1"><stop offset="0" stop-color="#f36d6d"/><stop offset="1" stop-color="#bf3636"/></linearGradient></defs><rect width="1200" height="500" fill="url(#bsan2_0)"/><circle cx="300" cy="270" r="260" fill="none" stroke="#fff" stroke-width="6" opacity="0.18"/><circle cx="300" cy="270" r="190" fill="none" stroke="#fff" stroke-width="5" opacity="0.15"/><circle cx="300" cy="270" r="120" fill="none" stroke="#fff" stroke-width="4" opacity="0.12"/><circle cx="300" cy="270" r="120" fill="#fff" opacity=".1"/><path d="M820 120 Q960 40 1100 120 T1200 100 L1200 500 L760 500Q800 300 820 120Z" fill="#cffafe" opacity=".16"/><circle cx="1130" cy="400" r="130" fill="#000" opacity=".09"/><path d="M0 460 Q300 400 600 450 T1200 420 L1200 500 L0 500Z" fill="#000" opacity=".12"/><circle cx="166" cy="190.5" r="6.5" fill="#fff" opacity="0.3"/><circle cx="576.9" cy="97.7" r="5.3" fill="#fff" opacity="0.4"/><circle cx="500.9" cy="164.7" r="3.5" fill="#fff" opacity="0.2"/><circle cx="445.2" cy="263.2" r="6.3" fill="#fff" opacity="0.3"/><circle cx="570.3" cy="363.2" r="5.7" fill="#fff" opacity="0.4"/><circle cx="241.6" cy="167.9" r="3.4" fill="#fff" opacity="0.4"/><circle cx="256.4" cy="331.8" r="6.2" fill="#fff" opacity="0.4"/><circle cx="114.3" cy="323.4" r="7.5" fill="#fff" opacity="0.3"/><circle cx="586.6" cy="280" r="4.1" fill="#fff" opacity="0.2"/><circle cx="445.8" cy="286.6" r="7.4" fill="#fff" opacity="0.4"/><circle cx="275.3" cy="266.7" r="5.8" fill="#fff" opacity="0.4"/><circle cx="58.6" cy="264.7" r="5.8" fill="#fff" opacity="0.2"/><circle cx="209.6" cy="228.7" r="3.9" fill="#fff" opacity="0.3"/><circle cx="245.5" cy="397.1" r="6.1" fill="#fff" opacity="0.4"/><g transform="translate(-40 131) scale(1.5) rotate(-14 100 100)"><ellipse cx="100" cy="186" rx="66" ry="7" fill="url(#bsan2_1)"/><path d="M34 74 Q100 -6 166 74" stroke="#64748b" stroke-width="6" fill="none"/><path d="M36 74 L164 74 L150 172 Q148 186 132 186 L68 186 Q52 186 50 172Z" fill="url(#bsan2_2)"/><ellipse cx="100" cy="74" rx="64" ry="10" fill="#0e7490" /><ellipse cx="100" cy="76" rx="56" ry="7" fill="#67e8f9" /><rect x="46" y="94" width="108" height="10" rx="0" fill="#fff" opacity=".4"/><circle cx="70" cy="60" r="10" fill="#fff" opacity=".7"/><circle cx="92" cy="44" r="6" fill="#fff" opacity=".7"/><circle cx="120" cy="56" r="9" fill="#fff" opacity=".6"/></g><g transform="translate(355 131.7) scale(1.6) rotate(12 100 100)"><ellipse cx="100" cy="186" rx="52" ry="6" fill="url(#bsan2_3)"/><rect x="62" y="160" width="76" height="26" rx="8" fill="url(#bsan2_4)" /><rect x="86" y="100" width="28" height="64" rx="6" fill="url(#bsan2_5)" /><path d="M90 106 L90 58 Q90 22 128 22 Q164 22 164 56 L164 74 L146 74 L146 58 Q146 40 128 40 Q108 40 108 60 L108 106Z" fill="url(#bsan2_6)"/><rect x="142" y="70" width="26" height="14" rx="4" fill="url(#bsan2_7)" /><path d="M100 56 L100 10" stroke="#b7c3d0" stroke-width="0"/><rect x="46" y="92" width="40" height="10" rx="5" fill="url(#bsan2_8)" /><rect x="114" y="92" width="40" height="10" rx="5" fill="url(#bsan2_9)" /><ellipse cx="155" cy="106" rx="3" ry="5" fill="#38bdf8" /><ellipse cx="155" cy="124" rx="3" ry="5" fill="#38bdf8" opacity=".8"/><ellipse cx="155" cy="144" rx="3" ry="5" fill="#38bdf8" opacity=".6"/><path d="M96 112 L96 156" stroke="#fff" stroke-width="4" opacity=".6" stroke-linecap="round"/></g><g transform="translate(85 55.1) scale(2.2) rotate(0 100 100)"><ellipse cx="100" cy="186" rx="52" ry="6" fill="url(#bsan2_10)"/><rect x="62" y="160" width="76" height="26" rx="8" fill="url(#bsan2_11)" /><rect x="86" y="100" width="28" height="64" rx="6" fill="url(#bsan2_12)" /><path d="M90 106 L90 58 Q90 22 128 22 Q164 22 164 56 L164 74 L146 74 L146 58 Q146 40 128 40 Q108 40 108 60 L108 106Z" fill="url(#bsan2_13)"/><rect x="142" y="70" width="26" height="14" rx="4" fill="url(#bsan2_14)" /><path d="M100 56 L100 10" stroke="#b7c3d0" stroke-width="0"/><rect x="46" y="92" width="40" height="10" rx="5" fill="url(#bsan2_15)" /><rect x="114" y="92" width="40" height="10" rx="5" fill="url(#bsan2_16)" /><ellipse cx="155" cy="106" rx="3" ry="5" fill="#38bdf8" /><ellipse cx="155" cy="124" rx="3" ry="5" fill="#38bdf8" opacity=".8"/><ellipse cx="155" cy="144" rx="3" ry="5" fill="#38bdf8" opacity=".6"/><path d="M96 112 L96 156" stroke="#fff" stroke-width="4" opacity=".6" stroke-linecap="round"/></g><path d="M470 60 Q470 80 490 80 Q470 80 470 100 Q470 80 450 80 Q470 80 470 60Z" fill="#fff" opacity="0.7"/><path d="M110 54 Q110 70 126 70 Q110 70 110 86 Q110 70 94 70 Q110 70 110 54Z" fill="#fff" opacity="0.7"/><path d="M600 288 Q600 300 612 300 Q600 300 600 312 Q600 300 588 300 Q600 300 600 288Z" fill="#fff" opacity="0.6"/><circle cx="540" cy="400" r="8" fill="#fff" opacity=".35"/></svg>
